<?xml version="1.0" encoding="UTF-8"?>
<svg version="1.1" viewBox="0 0 956 932" width="956" height="932" xmlns="http://www.w3.org/2000/svg">
<path transform="translate(0)" d="m0 0h956v932h-956z" fill="#D6D9D6"/>
<path transform="translate(540,205)" d="m0 0h10l4 2 15 2 4 3 7 1 7 4 6 2 2 2 5 1 17 1 3 2 7-1 1-6 4 2 7 7 9 11 7 10 8 16 4 11 2 19v15l-10 7-3 4-2 5v12l4 9 5 5 3 1v2h13l10-2 3-2 2 4 3 3 3 6 6 5 6 7v9l-4 5-2 6h8l1 7-1 2h-3v2h2l1 10 7-3 9-6v21l-2 10-5 10-8 6-5 2-9-1-7-4-6-7-5-11-1-5-1-18v-13l4-1v-34h-20v35h5l-1 34-4 11-6 8-8 5-10 1-7-3-7-6-5-10v-29l3 2v2l5 2 6 3-4-10-6-12v-2h-2l-4-8-7-11v-2h-2l-6-10-2-1v57l6-7h1l1 31 5 12 8 9 10 6 4 1h9l10-3 9-6 2-3h2v23l-5 6-2 3-2 8 2 5-4 2-2-6-7-1h-2v9l8 2v13l-2 2-7 1-5 7 1 11 7 7-3 6-6 3-2 12h-3l-3-6-7 1-2 7-3 4 3 3 7 1 1 4-3 2 6-2 1-2 4 1 1-1 7 1 3 4v3l7 1 7 6-1 5-16 20-6 8h-2v-38h-20v31l-3 3-1 17-9 8h-2v5l2 3-2 3h-2v2h5v1h-36v-73h-20v54l-2-1-1-10-2 1v2l-6 3 1 6 1 3-5 3-2-3-4 1-2 2-12-30-2-7-5-12-4-9v-3h-17l-3 10-4 10-4 11h-2l-1 8h-2l-2 10-5 14-4 8-4 13-2 5h-3l-4 1-6-4-4-1 8-7 3-7v-13l-2-6-5-5-6-3 1-4 7-8 1-4v-10l-5-9-6-5-14-3-35-2-2-1-1-3-5-1-3 1-10-3-1-32-2-4-1-11-3-10-5-2-1-2 3-9 6-2 1-2h-2v-2l-5-2v-4l-3 1h-7l-2-1v-8l5-2-1-2-4-3v-2l3-1-5-12-4-12-2-11-2-3-2 3h-6l-2 1-1-4v6l3 19 3 11-1 4-15-22-10-21-5-16-3-15v-29l5-25 6-18 10-19 4-10 4-7 1-2h-4v-3l-6-1 2-4 6 2 5-3 6-2 7-8-1-4 1-3 1-1h-3l-4-4 2-4 3-3v-6l-3-5h5l2 4v6h13l2 2 3-3v-3l5-6-2-2-1-7 6-4 5-1 4 2-5 1-2 7h5l2-4 7-2 2-10 3-2 2 5 2-2-2-1 1-4 4-4h3v3l5-1 2-3-3-1h4l-1-3h2l1-2-1 5h2l-1-10 4 1 5 3 1 6 1 2-4 1-6-2 1 6-2 2-8 2-2 4-4 4 6-2v-2h3v-2l12-3 17-6-2-1v-2h12l12-4v-3l-3-1 1-2-8-4 6-2 3 3h25l3-2 8-1h31l11-1z" fill="#D5D9D6"/>
<path transform="translate(514,218)" d="m0 0h11l31 3 20 4 33 11 15 8 6 3v2h3v2l6 3 1 7-17 9-14 9-5 5-6 4-4 4-8 7h-2v2l-4 1v2l-8 5-4 1 1 3 12-2 12-6 8-3 4-3 12-6 4-3 5-1v-2l14-7h7l1 5-8 11-6 7-8 7-8 6-10 7-10 6-14 5-7 1h-29l-16-5-11-8-7-8-8-14-4-15v-13l3-14 9-16 5-7-13 8-7 6-5 8-5 15-1 4v18l-15 2-27 4-25 8-23 11-11 7-12 9-12 11h-2l-2 4-8 9-7 10-9 16-6 15-4 12-2 14v27l3 19 3 11-1 4-15-22-10-21-5-16-3-15v-29l5-25 6-18 10-19 13-21 11-12 7-8 9-9 10-8 20-13 28-14 37-12 16-4 19-2z" fill="#0EB8CC"/>
<path transform="translate(485,305)" d="m0 0h6l3 3 7 13 7 8v2l4 2 7 5 21 8 23 2-2 2-16 6-15 4-5 2-16 3-13 2-25 5-19 3-21 7-11 6-7 7-8 10-5 9-2 9-1 1v19l3 15 4 10 2 4v4h2l3 6v3h2l4 7 3 3v2h2l2 4 14 14 18 13 5 2v2l5 1 14 8 4 2v1h-24l-25-4-16-5-19-6-20-10-9-6-3-4-5-3-9-10-9-15-7-20-2-11v-22l3-16 4-12 7-14 11-16 13-15 10-9 12-9 14-8 19-9 24-9 21-5z" fill="#28792E"/>
<path transform="translate(577,395)" d="m0 0h3l-2 5-2 4h-2v3h-2l-1 5h-2l-2 5-8 16-8 2h-6v2l-13 5-16 8-10 4-11 6-3 1v2l-6 3h-3v2l12-4h6v-2l12-3 11-5 11-4 13-5 4 1-7 11-3 7-3 12-13 2-21 4-17 1-7 2v2l17 3 42 1 2 1 3 10 8 14v1h-12l-31-6-10-3-4-2 5 5 10 6 21 7 11 2 16 1 3 3 9 14v3h2l6 8v2h-12l-15-2-19-6-23-8-17-9-7-3-15-9-3-1v-2h-3v-2l-5-2-5-4-13-13-5-6-6-8v-2h-2v-3h-2l-5-10v-2h-2l-4-9-5-15-1-5v-17l3 1v3h2l3 5 8 6v2l4 1 5 3 7 4 9 3h13l14-2 12-6h3v-2l5-2 1-2h3v-2l6-4h2v-2h3v-2h3v-2l10-5 10-6 8-4 14-5 10-4z" fill="#0A3A3B"/>
<path transform="translate(621,593)" d="m0 0h19v38l5-5 11-14 14-19h26l-6 8-9 10-9 11-2 3h-2l-2 5-2 3h-2l5 10 10 12 7 10 6 8v2h2l2 4 3 3 3-7 4-13h2l2-11 3-7 5-14 4-9 6-15 3-10h2v-3h18l3 5 3 9 4 9 4 13 6 15 5 14 4 9 4 10 3 7h-22l-5-12-3-6-31-1-2 9-4 10h-45l-9-11-22-28-1 5-1 34h-20v-20z" fill="#062225"/>
<path transform="translate(616,241)" d="m0 0 6 2 8 4v2h3v2l6 3 1 7-17 9-14 9-5 5-6 4-4 4-8 7h-2v2l-4 1v2l-8 5-4 1 1 3 12-2 12-6 8-3 4-3 12-6 4-3 5-1v-2l14-7h7l1 5-8 11-6 7-8 7-8 6-10 7-10 6-14 5-7 1h-29l-16-5-11-8-7-8-8-14-4-15v-13l2-2v7l5-5 2-3 9-2 5-3 6-1h9l8 7 1-2h2l3 7 6 7 2 1h12l6-4 5-8 1-7 5-4 1-2h2l2-4 9-7z" fill="#03595D"/>
<path transform="translate(603,361)" d="m0 0 3 1 5 8v2h2l11 18v3h2l9 19 1 5-6-2-5-3-2-3v28l5 10 7 6 6 2 10-1 8-5 5-7 4-11 1-32 1-2h-5v-35h20v34l-4 1 2 31 3 10 6 10 6 5 6 2 9-1 9-6 6-12 1-8v-20l-11 8h-4l3-9 8-16 6-10 8-11 7-9 2 1v57l-4-2-2-3-1 24-4 13-8 11-3 3-11 5-4 1h-8l-13-5-8-8v23l5 6 1 2v8l-4 6-3 3h-10l-4-3v-2h-2l-2-4v-8l4-6 2-2 1-23h-2l-2 4-9 6-10 3h-9l-7-3-9-6-7-8-5-12-1-30-6 7h-1z" fill="#082426"/>
<path transform="translate(492,236)" d="m0 0h8l4 6-10 15-5 15-1 4v18l-15 2-27 4-25 8-23 11-11 7-12 9-12 11h-2l-2 4-8 9-7 10-9 16-6 15-4 12-2 14v27l3 19 3 11-1 4-15-22-10-21-5-16v-7l2-1 3-8 5-5 5-1 1-8 4-18 10-19 8-12 10-13 14-15 13-12 15-10 17-9 16-7 21-7 8-2 1-5 1-4 11-7 3-3 14-6 5-4 3-6h2v-2z" fill="#087F8A"/>
<path transform="translate(474,306)" d="m0 0h5l-2 2-16 3 2 3-1 5-2 8-3 1v2h-2l-2 4-2 3-1 8 3 1-20 10-16 9-4 3h-3l-2 4-13 11-8 9-12 17-5 11-5 17-1 8v25l4 17-1 4v-2l-4-1v-2l-7-2-3 1 1 7 5 6v2h2l6 8-4-2-9-10-9-15-7-20-2-11v-22l3-16 4-12 7-14 11-16 13-15 10-9 12-9 14-8 19-9 24-9z" fill="#588C5D"/>
<path transform="translate(431,142)" d="m0 0h57l1 1 17 2 16 4 20 6 6 1v2l8 1 7 4 7 2v2l9 3 18 10 10 6 17 13 10 9 8 7 10 11 12 16 5 10 5 12 4 11 1 6v28l7 2 6 5v2h2l4 9v10l-3 7-7 8-9 3h-10l-3-1v-2l-4-1-6-6-3-8v-12l4-8 7-6 4-2v-15l-2-19-5-14-10-18-9-11-12-13-8-8-10-7v-2l-4-2-10-7-12-7-2-2-5-2-8-5-15-7-11-4-10-4v12l-5 6h-5l-5-5v-7l5-6 1-3-12-3-36-6h-48l-26 3-29 6-20 6-16 5-9 3-11 5-16 7-9 5-10 3v2l-5 2h-3l1-3 6-4 9-5 4-3 10-4 5-3 16-6 28-11 13-4 31-7 21-4z" fill="#092626"/>
<path transform="translate(668,458)" d="m0 0h2v23l-5 6-2 3-2 8 2 5-4 2-2-6-7-1h-2v9l8 2v13l-2 2-7 1-5 7 1 11 7 7-3 6-6 3-2 12h-3l-3-6-7 1-2 7-3 4 3 3 7 1 1 4-3 2 6-2 1-2 4 1 1-1 7 1 3 4v3l7 1 7 6-1 5-16 20-6 8h-2v-38h-20v31l-3 3-1 17-9 8h-2v5l2 3-2 3h-2v2h5v1h-18l-17-1v-10l2-5 4-1-1 5 2-4 2-5 1-11 3-3h9l3 2 1 4-3 5h-4v3l9-2 2-2 1-16 3-5h4l3-6h2l-1-14-4-8v-2l-6-2 3-3 1-7v-6l1-1 1-11 7-8 1-14 6-4v-25l-3-4v-12l4-7 4-11v-7l8 2h9l10-3 9-6z" fill="#EFF2F2"/>
<path transform="translate(386,593)" d="m0 0h36l14 3 8 7 4 8v10l-3 7-6 6-1 3 6 2 7 7 1 5v13l-4 8-8 7-10 4-5 1h-39z" fill="#062325"/>
<path transform="translate(577,395)" d="m0 0h3l-2 5-2 4h-2v3h-2l-1 5h-2l-2 5-8 16-8 2h-6v2l-13 5-16 8-10 4-11 6-3 1v2l-6 3h-3l1 3-5 3-10 5-10 2-14-1-9-4-5-2h-3l-2 2-3-4-1-5h-2l-4-9-5-15-1-5v-17l3 1v3h2l3 5 8 6v2l4 1 5 3 7 4 9 3h13l14-2 12-6h3v-2l5-2 1-2h3v-2l6-4h2v-2h3v-2h3v-2l10-5 10-6 8-4 14-5 10-4z" fill="#055B5E"/>
<path transform="translate(220,593)" d="m0 0h36l14 4 8 6 4 5 4 11v10l-5 12-7 7h-2v2l-14 5h-19v29h-19z" fill="#072325"/>
<path transform="translate(621,593)" d="m0 0h19v38l5-5 11-14 14-19h26l-6 8-9 10-9 11-2 3h-2l-2 5-2 3h-2l5 10 10 12 7 10 6 8v2h2l2 4 4 4v1h-25l-9-11-22-28-1 5-1 34h-20v-20z" fill="#072325"/>
<path transform="translate(490,593)" d="m0 0h17l7 18 4 8 3 10 13 32 3 8 5 13 1 2h-22l-6-17v-2l-32 1-5 13-1 5h-21l2-7 4-13 5-11 7-21h2l1-8h2l1-7 4-9 5-13z" fill="#062225"/>
<path transform="translate(545,221)" d="m0 0h11l20 4 33 11 8 4-4 4-11 6-3 1-1 3-4 4h-2l-2 4-4 2v7l-5 8-5 4-2 1h-12l-8-7-3-5v-4h-2l-1 3-8-7h-9l-8 2-3 2-9 1-2 5-3 3h-2l-1-11 3-10 7-12 8-6 5-1v-2l7-3 5-3 4-2h5l1-4-3-1z" fill="#0997A8"/>
<path transform="translate(298,593)" d="m0 0h20l1 63 4 6 4 3h10l7-3 4-8 1-61h21v62l-3 10-6 9-7 6-10 4-5 1h-13l-14-5-6-5-5-8-3-9z" fill="#082426"/>
<path transform="translate(492,236)" d="m0 0h8l4 6-10 15-5 15-1 4v18l-15 2-27 4-25 8-23 11-3 2-7 1-2-1 1-10 5-9 3-5 16-8 11-5 5-1v-2l15-5 8-2 1-5 1-4 11-7 3-3 14-6 5-4 3-6h2v-2z" fill="#057E8A"/>
<path transform="translate(691,350)" d="m0 0 2 1 1 3 3 3 3 6 6 5 6 7v9l-4 5-2 6h8l1 7-1 2h-3v2h2l1 10 7-3 9-6v21l-2 10-5 10-8 6-5 2-9-1-7-4-6-7-5-11-1-5-1-18v-13l4-1v-34l4-10z" fill="#EEF2F1"/>
<path transform="translate(540,205)" d="m0 0h10l4 2 15 2 4 3 7 1 7 4 6 2 2 2 5 1 17 1 3 2 7-1 1-6 4 2 4 4 2 7v3 2l-5 1v-2h-9l-12-6-6-1-2-1-12-1-9-4-7-3-18-4-1-1h-21l-1 2h7v2l10 1 22 3 13 4 6 2v2l-7-1-18-5-20-3-23-2-39 1-19 2-23 6-32 11-28 14-22 15-15 14-13 14-9 13-6 10-2-1 6-10 2-5h-4v-3l-6-1 2-4 6 2 5-3 6-2 7-8-1-4 1-3 1-1h-3l-4-4 2-4 3-3v-6l-3-5h5l2 4v6h13l2 2 3-3v-3l5-6-2-2-1-7 6-4 5-1 4 2-5 1-2 7h5l2-4 7-2 2-10 3-2 2 5 2-2-2-1 1-4 4-4h3v3l5-1 2-3-3-1h4l-1-3h2l1-2-1 5h2l-1-10 4 1 5 3 1 6 1 2-4 1-6-2 1 6-2 2-8 2-2 4-4 4 6-2v-2h3v-2l12-3 17-6-2-1v-2h12l12-4v-3l-3-1 1-2-8-4 6-2 3 3h25l3-2 8-1h31l11-1z" fill="#EEF1F1"/>
<path transform="translate(431,142)" d="m0 0h57l1 1 17 2 16 4 20 6 6 1v2l8 1 7 4 7 2v2l9 3 18 10 4 3 3 10 3 4-5-1-9-6-8-5-6-3-8-5-15-7-11-4-10-4v12l-5 6h-5l-5-5v-7l5-6 1-3-12-3-36-6h-48l-26 3-29 6-20 6-16 5-9 3-11 5-16 7-9 5-10 3v2l-5 2h-3l1-3 6-4 9-5 4-3 10-4 5-3 16-6 28-11 13-4 31-7 21-4z" fill="#0D2E2C"/>
<path transform="translate(552,593)" d="m0 0h20v73h24l12 1v17h-56z" fill="#062224"/>
<path transform="translate(344,486)" d="m0 0h5l7 11 9 10 5 3 5 5 25 13 13 4 2 4-10 1-22 1-1 1v21l7 7 1 18 7 2 1 3 5 1v1h-16l-2-1-1-3-5-1-3 1-10-3-1-32-2-4-1-11-3-10-5-2-1-2 3-9 6-2 1-2h-2v-2l-5-2v-4l-3 1h-7l-2-1v-8l5-2-1-2-4-3z" fill="#EEF2F1"/>
<path transform="translate(577,395)" d="m0 0h3l-2 5-2 4h-2v3h-2l-1 5h-2l-2 5-8 16-8 2h-6v2l-13 5-16 8-10 4h-4l-4-7-2-5 3-6 3-5 6-4h2v-2h3v-2h3v-2l10-5 10-6 8-4 14-5 10-4z" fill="#0C3C3D"/>
<path transform="translate(499,511)" d="m0 0 5 2 7 4 21 7 11 2 16 1 3 3 9 14v3h2l6 8v2h-12l-15-2-19-6-23-8-17-9-7-3-3-2v-2l5-4 3-5 4-4 4 1z" fill="#062325"/>
<path transform="translate(640,280)" d="m0 0h7l1 5-8 11-6 7-8 7-8 6-10 7-10 6-14 5-7 1h-25l-2-2 3-9 5-3 9-8 11-1 12-5 20-10 11-7 5-1v-2l10-5z" fill="#0B3B3C"/>
<path transform="translate(507,333)" d="m0 0h5l7 5 21 8 23 2-2 2-16 6-15 4-5 2-16 3-13 2-25 5h-9l1-3h5l1-6 9-11 1-7h2l1-5 10-4z" fill="#296534"/>
<path transform="translate(531,263)" d="m0 0h9l8 7 1-2h2l3 7 5 7-4 2-9 2-15 6-3 5-2 6v18h2l3 7-5-2-9-8-9-14-4-10-2-9v-13l2-2v7l5-5 2-3 9-2 5-3z" fill="#067E89"/>
<path transform="translate(288,430)" d="m0 0 3 1 2 12 4 8 3 12 3 7 2 5 2 3v8l2 5v4l2-4 2 2 5 1 1 10 11 22 3 4 2 5 5 6-1 4-12-1-1-13-13-1-2-7-5-5-2-5-3-2 2-4 1-1v-6l-1-1-8-1-4-8-2-3-1-31-3-5-2-9-1-1 1-7z" fill="#F0F3F3"/>
<path transform="translate(399,335)" d="m0 0 2 1 1 5v8l-4 3h-2l-2 5-9 12-5 4-3 6-3 3-4 7h-2v2l-3 3-3 10-5 3-5 5-12 8-2 9-1 21h-1v-22l3-16 4-12 7-14 11-16 13-15 10-9 12-9z" fill="#6EBD92"/>
<path transform="translate(340,202)" d="m0 0 12 2 27 6 15 5 12 6 1 2-16 8-3 2h-6l-12-5-27-5-18-2v-3l7-8 6-5z" fill="#062225"/>
<path transform="translate(373,186)" d="m0 0h17l15 4 11 5 10 3 5 3 7 3 9 5-4 2-10 3-9 3h-7l-10-5-7-3-8-2v-2l-9-2-16-5-10-4v-2z" fill="#082627"/>
<path transform="translate(411,214)" d="m0 0 4 1 5 3 1 6 1 2-4 1-6-2 1 6-2 2-8 2-2 4-4 4 6-2v-2h3v-2l12-3 17-6h3v2l-26 9-28 14-22 15-15 14-13 14-9 13-6 10-2-1 6-10 2-5h-4v-3l-6-1 2-4 6 2 5-3 6-2 7-8-1-4 1-3 1-1h-3l-4-4 2-4 3-3v-6l-3-5h5l2 4v6h13l2 2 3-3v-3l5-6-2-2-1-7 6-4 5-1 4 2-5 1-2 7h5l2-4 7-2 2-10 3-2 2 5 2-2-2-1 1-4 4-4h3v3l5-1 2-3-3-1h4l-1-3h2l1-2-1 5h2z" fill="#EDF1F0"/>
<path transform="translate(228,726)" d="m0 0h99l3 3-1 4-5 4-3 1-35 1h-17l-40-1-5-4v-5z" fill="#119AA7"/>
<path transform="translate(495,170)" d="m0 0 5 1 3-1 5 1 5 4v5l-1 1-1 7-5 3 1 6-1 1-34 1-10 5-4 1-10-2-1-4 1-2-2-1 5-1 7-4 8-7 7-3 11-2 3-5 6-2z" fill="#EFF2F2"/>
<path transform="translate(311,232)" d="m0 0h22l21 2 14 3 4 4-9 6h-3l-1 3-6 5-7-1h-38l-9 1 2-7 3-1 1-4 5-8z" fill="#072426"/>
<path transform="translate(483,489)" d="m0 0 15 1 42 1 2 1 3 10 8 14v1h-12l-31-6-10-3-4-2 2 5-5-3-2-12-2-4-6-2z" fill="#062325"/>
<path transform="translate(684,726)" d="m0 0h91l4 4-2 5-8 3h-83l-6-5 1-5z" fill="#129AA6"/>
<path transform="translate(424,282)" d="m0 0 3 1-16 7-16 8-5 10-2 3-2 10 6-1 1 2-17 12-13 12h-2l-2 4-8 9-2-3 1-9 3-5 1-4-6-1-2 3h-2l2-4 14-15 13-12 15-10 17-9 16-7z" fill="#0997A8"/>
<path transform="translate(562,248)" d="m0 0h11l8 5 4 9v11l-4 6-5 4-2 1h-12l-8-7-3-5-1-4v-7l5-8z" fill="#D5DBD7"/>
<path transform="translate(548,445)" d="m0 0 4 1-7 11-3 7-3 12-13 2-11 2h-9l-1-2-5-2v-8l1-6 12-3 11-5 11-4z" fill="#072426"/>
<path transform="translate(431,142)" d="m0 0h13l13 2v2l-2 1-9 1-1 1-34 3-23 4-24 6-22 7-9 3-19 8-19 9-9 4h-2v2l-5 2h-3l1-3 6-4 9-5 4-3 10-4 5-3 16-6 28-11 13-4 31-7 21-4z" fill="#0D2F2D"/>
<path transform="translate(492,236)" d="m0 0h8l4 6-10 15-5 15-2 4-2-5h-8l-13 3-20 4-8 1 2-2 12-3 1-5 1-4 11-7 3-3 14-6 5-4 3-6h2v-2z" fill="#0897A8"/>
<path transform="translate(426,505)" d="m0 0 4 2 8 8 18 13 5 2v2l5 1 14 8 4 2v1h-8l-7-1-1-5-7-2h-9l-11-1-5 2-7-3-8-1-8-7-3-2v-9l7-7 4 1 4 3h5l-4-5z" fill="#286332"/>
<path transform="translate(530,713)" d="m0 0h4l2 5h-2l-2 4v6l11 6-1 4-10-1v4l10 4-4 1v2l-7 2h-10l-11-4-3-3 4-3 1-10-9-1v4l4 1-1 3-7-1-3-2v-7l4-4h11l1-3 10-3 4-3z" fill="#EFF2F2"/>
<path transform="translate(315,262)" d="m0 0h25v4l-8 8-7 10h-14l-10 3-11 5-3-1 2-11 2-7h2l1-4 16-6z" fill="#0A2727"/>
<path transform="translate(257,198)" d="m0 0h8l9 4 3 6v12l-6 7-6 3h-10l-7-4-2-3v-13l5-8z" fill="#0B7E86"/>
<path transform="translate(309,292)" d="m0 0h8l-2 5-10 16-5 11-5 13-4 9-2 5h-2l-2-22v-13l1-8 8-8 10-6z" fill="#082626"/>
<path transform="translate(326,221)" d="m0 0 17 1 27 5 12 5h6l5-3 2 1-2 4 3 1-4 3-1-3-3 3-2 7-7 2-2 4-5-1 1-5 1-2 4-1-7-2-7-3-17-3-14-1-3-2-5-1-1-4 3-3z" fill="#CCD5CF"/>
<path transform="translate(590,231)" d="m0 0 8 1 13 5 6 3-4 4-11 6-3 1-1 3-4 4h-2l-2 4-4 2v7h-1l-2-12-2-6-4-2v-7l2-7 2-2z" fill="#087F8A"/>
<path transform="translate(438,211)" d="m0 0h9l5 2 3 2v2l2 1 1 4-13 4-12-1v2h6l-4 2-23 8h-6v2h-3v2l-6 3-2-1 7-6 3-3 7-3v-6l8 1v-2l-1-7 12-3z" fill="#D5DAD6"/>
<path transform="translate(542,157)" d="m0 0 11 1 10 5 7 2v2l9 3 18 10 4 3 3 10 3 4-5-1-9-6-8-5-6-3-8-5-15-7-11-4-1-2-3-2z" fill="#081E1F"/>
<path transform="translate(239,610)" d="m0 0 17 1 2 1v2l4 2 2 3v11l-5 5-3 2-17 1z" fill="#CCD6CF"/>
<path transform="translate(587,717)" d="m0 0h11l7 6 2 4v6l-4 6-6 5h-8l-4-2-5-7v-9l4-6z" fill="#0B2422"/>
<path transform="translate(620,593)" d="m0 0h1v71l-1 19h-1l-2-10-5-1-3 12h-1v-17h-12v-1l7-1v-2l3-3-2-3 1-5 10-8 1-17 3-4z" fill="#C5D3C9"/>
<path transform="translate(629,590)" d="m0 0 9 1v-1h7l2 4h2v6l1 2h5l5-3 5 1-4 7-9 11-10 13h-2v-38h-19v-1h8z" fill="#D5DAD6"/>
<path transform="translate(474,381)" d="m0 0h8l-5 10-7 10-7 9-7 7-5 2v2h-3l2-13 5-10 8-10 5-5z" fill="#0B2929"/>
<path transform="translate(406,645)" d="m0 0 19 1 6 5 1 2v6l-6 7h-20z" fill="#D7DBD8"/>
<path transform="translate(614,717)" d="m0 0h14l5 4 1 2v7l-2 3 1 5 2 3v3h-7l-4-7-3-2-1 9h-7z" fill="#0B2120"/>
<path transform="translate(371,199)" d="m0 0 7 1 14 5v2l10 2 9 4 1 3v8h-2v-3l-3 7-4 2-2-1-1-4 6-3-14-7-25-7 1-2-1-4 4-1z" fill="#CAD5CD"/>
<path transform="translate(314,398)" d="m0 0h1l-1 11-2 15-1 5-1 15-1 11-3-4-6-15-2-8v-7l2-1 3-8 5-5 5-1z" fill="#0B98A7"/>
<path transform="translate(323,419)" d="m0 0h1v28l1 3 4-1 3 1 2-6h1l3 11 3 12 1 9-4 1-1 2-1-5-3 1-2-1-3 1-2-5v-6h-2l-1-2-1-9v-27z" fill="#EAEDED"/>
<path transform="translate(459,717)" d="m0 0 7 2 8 10 1-12h6v26h-5l-9-11-2-1v12h-6z" fill="#071E20"/>
<path transform="translate(428,717)" d="m0 0h7v27h-7v-11l-9 1-1 10-6-1v-25h6v9h10z" fill="#051C1E"/>
<path transform="translate(553,716)" d="m0 0h2v7h8v9l-2 10h-2l2 2-2 2-9 3-6-1-1-3 6-7v-8l-6-2-5-3v-2l12-1-2-5z" fill="#E9EEED"/>
<path transform="translate(729,407)" d="m0 0h1v21l-2 10-5 10-6 5-2-2 2-2-1-7-5-2v-1l8-1 2-5h-5l-2-3v-6l9-2-2-9z" fill="#CFD8D1"/>
<path transform="translate(760,553)" d="m0 0h10l6 6v7l-3 6-5 4-9-1-4-6v-10z" fill="#BFD2C6"/>
<path transform="translate(664,559)" d="m0 0 3 4 4-1v3h2l1 6 4 3 3 9 1 4h-2v2l-8 1-3-3-1-6-4-2-3-4-5-3 1-5 2-4 4-2z" fill="#F0F3F3"/>
<path transform="translate(498,717)" d="m0 0h10v2l4 1-1 4h-11l-3 3v7l4 2h5l1-2-4-1v-4h9l1 4-1 7-2 2-5 2h-7l-8-7-1-3v-8l6-7z" fill="#0C2423"/>
<path transform="translate(690,379)" d="m0 0 3 1-1 22 5 2v3l-4 3-1 11-3 4-2-4v-4h-2l-1 9 1 3-2 4-1-5-1-18v-13l4-1 2-10 2-1z" fill="#D0D7D2"/>
<path transform="translate(334,271)" d="m0 0h3l2 5h3l-2 7 3 1-5 5-3 1-2 4-7 2-4 2-5-2-2 1 2-6-3-1 3-1-1-4 1-1h8l2-4z" fill="#D6DBD7"/>
<path transform="translate(406,611)" d="m0 0h16l4 2 2 3v7l-6 6h-16z" fill="#E4ECE8"/>
<path transform="translate(384,647)" d="m0 0h1v37l-4-5-2-7-11-1v-2l-3 1 1-5 3-10h2l2-4 2 1v2l6-1z" fill="#EEF1F1"/>
<path transform="translate(642,717)" d="m0 0h18v5h-12l1 5 8 1v5h-8v4h10l1 1v6h-18z" fill="#102924"/>
<path transform="translate(451,649)" d="m0 0 2 1 2 7 7-3 1-2h2l1 5-4 10-3 10-2 5h-3l-4 1-6-4-4-1 8-7 3-7z" fill="#CED7D1"/>
<path transform="translate(391,717)" d="m0 0h8l5 3-2 4h-5l-2-1v3l8 4 2 2-1 6-6 7-7-1-4-3 1-5 6 1v2l3-2v-3l-9-4-2-2v-6z" fill="#0B2422"/>
<path transform="translate(285,350)" d="m0 0 2 1-2 2 3 6v9l-2 1 4 7 1 1 1 14-6-1-4-4-1-12-3-4v-13l1-5z" fill="#EFF2F2"/>
<path transform="translate(538,717)" d="m0 0 7 1 3 1v4h-10l3 3 8 4 1 2v6l-4 5-3 1h-7l-5-3 1-4h10v-3l-10-5-1-1v-6l3-4z" fill="#0A2121"/>
<path transform="translate(348,717)" d="m0 0h18v6h-11v5h9v6h-9v10h-7z" fill="#0D2523"/>
<path transform="translate(447,621)" d="m0 0h2l2 4v11l2 1v2l4 2 1 8h7l2 3-2 3v-3h-2l-2 4-5 1-2 2-2-9-6-9-8-4 1-4 7-8z" fill="#EAEFED"/>
<path transform="translate(661,716)" d="m0 0 2 1 3 5 1 3 3 1v12l-2 3h-7l-2-3-10-1v-4h8v-5h-8l1-5 11-1z" fill="#E8EFED"/>
<path transform="translate(741,423)" d="m0 0h1l1 6 3 2v5h3v9l-3 1v-2l-6-1 1 2v8l-3 6h8l-1 10-11 4-4-2v-3h6l1-6-5-1 2-7 4-8 2-8z" fill="#EBEFEE"/>
<path transform="translate(311,283)" d="m0 0h12v1l-6 1 1 5-1 2-8 1-12 6-8 7-1-3 1-2-2-9 13-5 7-3z" fill="#CDD6CF"/>
<path transform="translate(674,322)" d="m0 0 6 1 5 5v7l-5 6h-8l-6-5v-8l5-5z" fill="#D0D7D2"/>
<path transform="translate(497,621)" d="m0 0 3 1 6 21 1 5h-18l2-9z" fill="#E5ECE9"/>
<path transform="translate(406,714)" d="m0 0 1 2v2l5-2v15l-1 13h-10l1-4 2-4-1-5-9-5 1-4 7 1v-4l-1-3z" fill="#D7DAD7"/>
<path transform="translate(548,635)" d="m0 0 2 1 1 10v13h-1l-1-5h-4l-3 7-2 3h-2l-1 3-2-2-4-9 1-6h5l1 3 4-2-2-5 1-5 3-2h3l-1-3z" fill="#ECF0EF"/>
<path transform="translate(739,621)" d="m0 0 2 1 5 14v5h2l1 7h-18l1-7z" fill="#E0E8E4"/>
<path transform="translate(452,386)" d="m0 0h3l-2 5-6 9-5 4-2 1h-9l-4-3 2-5 12-7z" fill="#0B3B3C"/>
<path transform="translate(528,157)" d="m0 0 7 1 2 3h-2v13l-5 6h-5l-5-5v-7l5-6 1-4z" fill="#082527"/>
<path transform="translate(569,724)" d="m0 0h7v11l3-1 5 5 1 3 5 2-4 2h-15l-6-1 3-1z" fill="#EDF1F1"/>
<path transform="translate(555,717)" d="m0 0h20v6h-6v16l-1 4h-6v-11l1-9h-8z" fill="#0B2524"/>
<path transform="translate(727,391)" d="m0 0h2l4 7 1 6-2 7h-2l-1-3-11 8h-4l3-9 7-14z" fill="#061B1D"/>
<path transform="translate(462,765)" d="m0 0h8l3 3-9 2-3 1v7l3 3 5 1-3-5v-3l8 1-1 11-9 1-5-2-3-3-1-3v-7l2-4z" fill="#42A28D"/>
<path transform="translate(572,766)" d="m0 0h8l4 1v2l3 1v5l-2 1 2 10-4-1-4-6-3-2v10l-4-1z" fill="#26786D"/>
<path transform="translate(536,766)" d="m0 0h5v21h-4l-1-10h-8v10l-5-1v-19h5v6l8 1z" fill="#309185"/>
<path transform="translate(613,716)" d="m0 0h1v26l-1 2h-13l6-7v-2-8l-1-6 5-4z" fill="#DADDDA"/>
<path transform="translate(697,425)" d="m0 0 3 1-1 12 3 8 5 1-1 4-2 2-6 1-8-7-3-6 4-1 3-3 1-10z" fill="#D6DBD7"/>
<path transform="translate(322,171)" d="m0 0h3l-1 5-19 8-11 6-10 3v2l-5 2h-3l1-3 6-4 9-5 4-3 10-4 5-3z" fill="#0E302B"/>
<path transform="translate(525,718)" d="m0 0h8v3l-1 1v6l11 6-1 4-10-1-2 4v-5l-4-2-3-4v-8z" fill="#CED6D0"/>
<path transform="translate(435,766)" d="m0 0h3l8 18v3h-5l-2-6-8 1-2 6-4-1 1-7 4-8h2l1-2v7l4 1-1-10-2-1z" fill="#22786D"/>
<path transform="translate(669,628)" d="m0 0h2l4 8 1 10 2 2v7l-4-2-9-12-3-6z" fill="#EBF0EF"/>
<path transform="translate(669,249)" d="m0 0h2l7 14 5 11v11l-1 14h-2l-1-4-2-20-8-22z" fill="#EBEEEE"/>
<path transform="translate(565,259)" d="m0 0h7l3 2 1 7-3 5h-8l-5-4v-6z" fill="#0D2D2B"/>
<path transform="translate(577,395)" d="m0 0h3l-2 5-2 4h-2v3h-2l-1 5-8-5-5-5 1-2 12-4z" fill="#0F5E5D"/>
<path transform="translate(500,723)" d="m0 0h13l1 2h-2l3 4 3-1-1 4h-2l-1 4-2 2v-8l-9-1v4l4 1-1 3-7-1-3-2v-7z" fill="#C8D5CC"/>
<path transform="translate(552,156)" d="m0 0 6 1 3 2 7 2 11 6 12 4 3 2v2l5 2 3 3h-7l-11-6-14-7v-2l-9-2-10-5z" fill="#D5E2DB"/>
<path transform="translate(630,256)" d="m0 0 4 1 2 6-16 9h-3v-7l5-7z" fill="#09393C"/>
<path transform="translate(530,741)" d="m0 0 9 3 3 2h-4v2l-7 2h-10l-11-4-3-3 3-1 20 1z" fill="#EFF2F2"/>
<path transform="translate(257,198)" d="m0 0h8l2 3-1 2h-2l-1 3-5 3h-2l-1 3-3-1-1 3h-2l-2 2v-8l4-6z" fill="#096162"/>
<path transform="translate(596,766)" d="m0 0h12v2l-2 1h-6v6l7-1v3l-6 1v3h7v6l-11-1-1-1z" fill="#409279"/>
<path transform="translate(444,717)" d="m0 0h6v28l-6-1z" fill="#042024"/>
<path transform="translate(341,284)" d="m0 0h2l-2 5-7 7-9 13-6 10-2-1 6-10 2-5h-4v-3l-6-1 2-4 6 2 5-3 6-2z" fill="#ECEFEE"/>
<path transform="translate(760,553)" d="m0 0h10l6 6v7l-3 6-5 4-9-1-4-6v-10zm2 2-5 5v7h2l2 5 1 1h7l4-4v-9l-2-3h-2v-2z" fill="#154138"/>
<path transform="translate(428,717)" d="m0 0h7v27h-7l2-1v-16h-2z" fill="#183B30"/>
<path transform="translate(536,162)" d="m0 0 9 3 16 6 1 1v7l-6-2-4-3-10-3-6-3z" fill="#E8EDEB"/>
<path transform="translate(355,734)" d="m0 0 8 1 3 2 6-1v9l-2 1h-12l-3-3z" fill="#EDF0F0"/>
<path transform="translate(302,443)" d="m0 0 3 3 10 21 3 4-1 2-7-2-4-6-1-5 1-4-2-2-4-3-2-6z" fill="#ECEFEF"/>
<path transform="translate(590,723)" d="m0 0h6l4 3v7l-4 4h-6l-3-3v-8z" fill="#E2EAE7"/>
<path transform="translate(373,718)" d="m0 0h6v26h-6z" fill="#03191E"/>
<path transform="translate(746,390)" d="m0 0h1l1 12v17l-4-2-2-3-1 24h-1l-1-22-1-10 4-1 4 1-1-5z" fill="#122D26"/>
<path transform="translate(551,766)" d="m0 0h12v3l-7 1v3l5 1v3h-5v4l6 1v5h-10z" fill="#2B9188"/>
<path transform="translate(684,728)" d="m0 0 10 1 1 8h33v1h-42l-5-4 1-4z" fill="#1EB8C1"/>
<path transform="translate(637,470)" d="m0 0h15l4 2-1 6-1 1-18-1-1-4z" fill="#D6DAD6"/>
<path transform="translate(496,153)" d="m0 0 10 1 7 2-2 1-1 4-13 5-4-1-1-3 2-2 6-1-1-2-7-2z" fill="#EEF1F1"/>
<path transform="translate(340,202)" d="m0 0 9 1-4 1-2 6-4 5-12 4 4 2h-6v-3l7-8 6-5z" fill="#13433F"/>
<path transform="translate(459,717)" d="m0 0 7 2 1 2-3-1-1 10 3 1-1 12h-6z" fill="#11352C"/>
<path transform="translate(520,684)" d="m0 0 23 1-2 4-8 1 1 3h-9l-5-5z" fill="#EFF2F2"/>
<path transform="translate(681,660)" d="m0 0h5l6 2 5 15v4l-4-2-1-4h-2l-7-10z" fill="#E8EEEC"/>
<path transform="translate(615,717)" d="m0 0h13l-2 2 2 2v7l-2 2-5-1-5-5z" fill="#11322E"/>
<path transform="translate(349,160)" d="m0 0h5l-1 2-3 2v2l-12 5-10 3-5 1 2-5z" fill="#092726"/>
<path transform="translate(668,458)" d="m0 0h2v17l-1-2-8 1-3-3-6-1 3-2 10-6z" fill="#CAD6CE"/>
<path transform="translate(498,717)" d="m0 0h10v2l4 1-1 4h-11l-4 3-4 1-2-3 5-6z" fill="#0D2C2A"/>
<path transform="translate(604,362)" d="m0 0h2l5 8v2h2l7 12-1 3-5-6-3-2v-3l-7 2z" fill="#071C1D"/>
<path transform="translate(407,766)" d="m0 0h11l1 4-4 1v16l-5-1v-15l-3-1z" fill="#2E7E6D"/>
<path transform="translate(587,717)" d="m0 0h6l1 3-5 5-2 7-2 4-5-1v-9l4-6z" fill="#0B2A29"/>
<path transform="translate(749,409)" d="m0 0h7l-1 10-3 10-2 5h-1l-1-7-2-3 1-4h2z" fill="#EFF2F2"/>
<path transform="translate(321,221)" d="m0 0 7 1-3 5v3h7l-2 2h-19l1-2h3l-1-4 3-1 1-3z" fill="#D8DBD9"/>
<path transform="translate(569,724)" d="m0 0h7v11l3-1 1 3-2 2-9 3z" fill="#EFF2F2"/>
<path transform="translate(347,364)" d="m0 0v3l-3 5-3 7-2 4h-2l-1 7-4 7-7 20h-1l1-9 8-21 8-15z" fill="#E9ECEB"/>
<path transform="translate(617,667)" d="m0 0h1l1 8v9l-7-1-3 3h-5l4-2 3-13 5 1z" fill="#EFF2F2"/>
<path transform="translate(741,423)" d="m0 0h1l1 6 3 2v5h3v9l-3 1v-2l-6-1-1 3z" fill="#EEF1F1"/>
<path transform="translate(703,610)" d="m0 0 4 1-4 2 2 5-1 6-1 3-4 1-2 9-3 7-1-2 2-11 3-5 2-2-2-4 3-3-1-4z" fill="#F0F3F3"/>
<path transform="translate(581,184)" d="m0 0 5 1 9 5 2 7-7-2-11-6-3-3 4-1z" fill="#E9EFED"/>
<path transform="translate(464,769)" d="m0 0h10l-2 2 1 3-7 1 3 4v3l-7-1-2-3 1-7z" fill="#DEE1DF"/>
<path transform="translate(497,621)" d="m0 0 3 1 5 16-1 2-2-4v-3h-2v2l-3 1-2-1-4 10-1-3z" fill="#B8CEBF"/>
<path transform="translate(406,714)" d="m0 0 1 2v2l4-1v2l-3 1-3 11-5-2-6-3 1-4 7 1v-4l-1-3z" fill="#E6EDEA"/>
<path transform="translate(544,218)" d="m0 0 8 1 22 3 13 4 6 2v2l-7-1-18-5-20-3-10-1v-1z" fill="#EAEDED"/>
<path transform="translate(462,765)" d="m0 0h8l3 3-9 2-3 1v2l-2 1-1 9-2-1-1-3v-7l2-4z" fill="#278B84"/>
<path transform="translate(380,519)" d="m0 0 6 2 3 3v2l-3 2-9-1-5-5v-1z" fill="#D7DAD7"/>
<path transform="translate(555,723)" d="m0 0h8v9l-5 3-5-1 1-6z" fill="#C7D4CB"/>
<path transform="translate(590,557)" d="m0 0h6l3 5-3 5-4 1-4-3v-6z" fill="#F0F3F3"/>
<path transform="translate(679,295)" d="m0 0 1 4 3-1 1 6h2l3 3 2 6-5-1-7-3z" fill="#E9EFED"/>
<path transform="translate(594,765)" d="m0 0h1v16l-2-1v-2l-9 2 1-5h2v-5l7-1z" fill="#EBEFEE"/>
<path transform="translate(765,558)" d="m0 0 4 1 1 1-1 7-1 3h-5l-1-3h-2v-5z" fill="#6D9986"/>
<path transform="translate(746,361)" d="m0 0 2 1-2 25h-1l-1-13-4-1-2 2 1-5z" fill="#081E1E"/>
<path transform="translate(673,362)" d="m0 0h12v34l-3-1v-27l-1-5h-8z" fill="#0B2A27"/>
<path transform="translate(435,228)" d="m0 0h3v2l-26 9-13 6 2-4h2v-2h3v-2l12-3z" fill="#EBEEEE"/>
<path transform="translate(432,770)" d="m0 0h1v7l4 1 1-3v4l-7 3-2 6-4-1 1-7 4-8h2z" fill="#349182"/>
<path transform="translate(344,507)" d="m0 0 6 2 1 5-2 5-4-2-1-4-5-2v-3z" fill="#F0F3F3"/>
<path transform="translate(684,461)" d="m0 0 4 2 5 3 2 1v2l-6 1-7 4v-11z" fill="#EAEFEE"/>
<path transform="translate(336,378)" d="m0 0 2 1-7 15-6 18h-1v-11l8-17h2l1-4z" fill="#22A1A3"/>
<path transform="translate(419,733)" d="m0 0h9l-1 8-8 1-1 2v-10z" fill="#C1D6CA"/>
<path transform="translate(444,678)" d="m0 0 6 4 4-1 2-1-1 6-16-2-3-2 2-3z" fill="#EDF1F1"/>
<path transform="translate(405,732)" d="m0 0 1 2 5 1v9h-10l1-4z" fill="#EDF1F0"/>
<path transform="translate(623,394)" d="m0 0 4 1 8 17 1 5-5-2-2-3-1-7-5-10z" fill="#0B2421"/>
<path transform="translate(595,191)" d="m0 0 6 3 11 8v2h2v2l-6-2-11-6-2-4z" fill="#DBE4DF"/>
<path transform="translate(546,742)" d="m0 0h13l2 2-2 2-9 3-6-1-1-3z" fill="#EFF2F2"/>
<path transform="translate(519,157)" d="m0 0 7 2-1 5-4 4-1 5-3-4 1-10z" fill="#C1D2C7"/>
<path transform="translate(568,194)" d="m0 0h14l2 2 1 6-7-1-2-2-5-1-2-2z" fill="#F0F3F3"/>
<path transform="translate(606,766)" d="m0 0h2v2l-2 1h-6v6l7-1v2l-7 1-1 5h-2v-15z" fill="#055B5D"/>
<path transform="translate(727,409)" d="m0 0h2v14l-1 12-3-2 1-7-1-9-1-3 1-1v-3z" fill="#EAEEED"/>
<path transform="translate(576,770)" d="m0 0h6l1 7 3 4 1 5-4-1-4-6-2-4z" fill="#17716D"/>
<path transform="translate(614,717)" d="m0 0h1v18l3-1v4h2v6h-7z" fill="#1E4833"/>
<path transform="translate(287,294)" d="m0 0 2 2 1 6-2 5h-4l-2-4v-5l2-3z" fill="#DFE2E1"/>
<path transform="translate(552,156)" d="m0 0 6 1 3 2 7 2 8 5-2 1-13-4-10-5z" fill="#D6E3DC"/>
<path transform="translate(678,398)" d="m0 0 3 3 1 9v20h-1l-1-5-1-14-1-3z" fill="#051A1C"/>
<path transform="translate(446,717)" d="m0 0h4v28l-6-1 2-3v-7l2-1 1-15z" fill="#1B4F41"/>
<path transform="translate(471,717)" d="m0 0h4v13l-5-5-3-5 1-2z" fill="#D2D9D4"/>
<path transform="translate(491,766)" d="m0 0h10v2h-6v7l-2 3-1 7h-1z" fill="#6CB98E"/>
<path transform="translate(608,734)" d="m0 0 1 2h2l1 4v2l1 2h-13l6-7z" fill="#EFF2F2"/>
<path transform="translate(316,320)" d="m0 0 1 2-8 16-3 7-2 5h-2l3-10 3-5 3-9 2-3h2z" fill="#E7EAE9"/>
<path transform="translate(303,318)" d="m0 0 4 4 1 8-7-1-2-1 1-5z" fill="#ECF0F0"/>
<path transform="translate(363,366)" d="m0 0v3l-8 11-5 8h-2l-1-7 6-3 9-11z" fill="#E8EBEA"/>
<path transform="translate(528,157)" d="m0 0 7 1 2 3h-2v12h-1l-2-10-4-1-2 1v-5z" fill="#051A1B"/>
<path transform="translate(631,304)" d="m0 0 3 1-2 6-5 4-4 2-3-1z" fill="#E3ECE8"/>
<path transform="translate(517,235)" d="m0 0h2l-2 5-5 1-8 6-5 5-4 6-1-3 7-9 11-8z" fill="#E6E9E7"/>
<path transform="translate(525,523)" d="m0 0 11 2 12 2v1l-7 1h-9l-7-5z" fill="#04181B"/>
<path transform="translate(696,469)" d="m0 0h3l1 6-3 3h-5l-1-1v-5l5-2z" fill="#EFF2F2"/>
<path transform="translate(263,222)" d="m0 0 4 2 1 4-3 2h-10l-1-2h6l1-5z" fill="#085D5E"/>
<path transform="translate(346,390)" d="m0 0 1 4-5 9-3 1v-2l-3-1-1-5 5 2 3-1 1-5z" fill="#ECEFEE"/>
<path transform="translate(761,556)" d="m0 0h6l-2 1-2 4-3 1 1 7h-2v-2h-2v-7z" fill="#C1D7CA"/>
<path transform="translate(625,212)" d="m0 0 4 2 6 4 6 9-1 3-9-10-6-6z" fill="#112D25"/>
<path transform="translate(523,767)" d="m0 0h4v6l-1 7-1 5h-2z" fill="#1F6548"/>
<path transform="translate(465,731)" d="m0 0 4 2 2 4v3l-4 1-1 3h-7v-1h6z" fill="#B9D1C3"/>
<path transform="translate(467,775)" d="m0 0h7l-1 11h-8l-3-2h9l-2-6z" fill="#156A67"/>
<path transform="translate(526,773)" d="m0 0 9 3v1h-7v10l-5-1 2-1v-10z" fill="#238983"/>
<path transform="translate(590,723)" d="m0 0h6l2 2-4 4h-5l-1 5h-1v-8z" fill="#D3DCD7"/>
<path transform="translate(733,373)" d="m0 0 2 1-4 8-4 7-3-2 4-8h3l-1-4z" fill="#E9EEEC"/>
<path transform="translate(595,229)" d="m0 0 5 2 16 7 5 2 2 3-6-2-13-6-10-4z" fill="#E4EAE7"/>
<path transform="translate(580,735)" d="m0 0 4 5-9 3-6 1-1-5 2 2 6-3 3-1z" fill="#D1D8D3"/>
<path transform="translate(634,731)" d="m0 0 3 1 1 5-2 7-3-4-2-4v-3z" fill="#EAF0EE"/>
<path transform="translate(749,362)" d="m0 0 4 1-1 10-1 5-2-3-1-2z" fill="#EFF2F1"/>
<path transform="translate(454,222)" d="m0 0 3 1-2 2-13 4-4-1-5-1v-2h12z" fill="#ECEFEE"/>
<path transform="translate(621,735)" d="m0 0 4 2 3 4v2l-7 1-1-1v-6z" fill="#CBD7CF"/>
<path transform="translate(289,186)" d="m0 0h2l-2 5-5 2v2l-5 2h-3l1-3 6-4z" fill="#275544"/>
<path transform="translate(444,718)" d="m0 0 2 2 1 22-3 1z" fill="#031419"/>
<path transform="translate(773,562)" d="m0 0h1l1 7-4 5-3 2-9-1 2-4 1 1h7l3-3z" fill="#316349"/>
<path transform="translate(621,723)" d="m0 0h6l1 5-2 2-5-1-1-5z" fill="#C4D4CA"/>
<path transform="translate(265,622)" d="m0 0h1l1 7 1 4-3 3h-6v-2h2l2-4z" fill="#071B1C"/>
<path transform="translate(641,616)" d="m0 0 1 3 6 1-3 7-2 1-2-1z" fill="#EBF0EF"/>
<path transform="translate(682,613)" d="m0 0v3l-4 8-4-2 1-5 3-3z" fill="#E7EEEB"/>
<path transform="translate(366,198)" d="m0 0 5 1v2l-3 2v3l2 1-10-2v-2l5-3z" fill="#EDF0F0"/>
<path transform="translate(380,733)" d="m0 0 2 1 1 5 4 2v2l-3 2h-5z" fill="#F0F3F3"/>
<path transform="translate(347,364)" d="m0 0v3l-3 5-3 7-2 4h-3l2-6 7-11z" fill="#EBEEEE"/>
<path transform="translate(686,444)" d="m0 0 4 1 6 7-1 2-7-2-2-5z" fill="#082120"/>
<path transform="translate(511,740)" d="m0 0h13l6 1v2h-20z" fill="#D2D8D3"/>
<path transform="translate(288,417)" d="m0 0 4 2v6l-2 2-5-6 1-3z" fill="#F0F3F3"/>
<path transform="translate(535,767)" d="m0 0h1v7l-8-1v-4z" fill="#ECEFEF"/>
<path transform="translate(462,765)" d="m0 0h8l3 3-9 2h-3l2-2-4-1z" fill="#67A87D"/>
<path transform="translate(435,228)" d="m0 0h3v2l-22 7v-2l13-5z" fill="#E8EBEA"/>
<path transform="translate(679,728)" d="m0 0h1l2 6 6 4-1 2-8-2-2-2 1-7z" fill="#EBEEED"/>
<path transform="translate(301,588)" d="m0 0h7l-1 3h11l-1 2-19-1 2-1z" fill="#F0F3F3"/>
<path transform="translate(739,621)" d="m0 0 2 1 3 10-4-2-4 2z" fill="#BCD1C3"/>
<path transform="translate(768,553)" d="m0 0 4 2 4 4v7l-2 1-2-7-1-3h-2v-2l-2-1z" fill="#1B4235"/>
<path transform="translate(432,768)" d="m0 0h4l1 10h-5z" fill="#8BBCAB"/>
<path transform="translate(338,659)" d="m0 0 3 2h2l-1 3-5 2h-7v-2h6z" fill="#ECEFEF"/>
<path transform="translate(388,543)" d="m0 0 5 2v4l-2 1 2 2-5-1-2-4z" fill="#EEF1F0"/>
<path transform="translate(310,530)" d="m0 0h3v9h-4l-1-6z" fill="#F0F3F3"/>
<path transform="translate(679,295)" d="m0 0h1v11l3-1 3 2v4l-7-2z" fill="#AACDB9"/>
<path transform="translate(294,406)" d="m0 0h1l3 18v5l-2-2-2-6z" fill="#EAEDEC"/>
<path transform="translate(345,363)" d="m0 0h2l-2 4-6 10-1-4 4-7z" fill="#23A3A5"/>
<path transform="translate(428,779)" d="m0 0h2v8l-4 1-1-1v-5z" fill="#2E8B7D"/>
<path transform="translate(464,769)" d="m0 0h10l-2 2 1 3-10-1z" fill="#E3E6E4"/>
<path transform="translate(642,676)" d="m0 0 2 4h4l2 2-5 1v2h-5l1-8z" fill="#F0F3F3"/>
<path transform="translate(324,222)" d="m0 0 4 1-3 4v3h7v1h-9l-1-1 1-7z" fill="#F0F3F3"/>
<path transform="translate(274,195)" d="m0 0 1 4-1 4-9-4v-2h5z" fill="#EAEDEC"/>
<path transform="translate(509,145)" d="m0 0 16 2 3 3-16-2z" fill="#DFE8E4"/>
<path transform="translate(625,444)" d="m0 0 5 5 7 5-2 2-5-3-5-5z" fill="#153227"/>
<path transform="translate(336,378)" d="m0 0 2 1-7 15-2-1 3-9h2l1-4z" fill="#24A1A2"/>
<path transform="translate(337,254)" d="m0 0h5l2 4-1 6-3-3-2-5z" fill="#F0F3F3"/>
<path transform="translate(478,150)" d="m0 0 11 1v3l-5-1v1l-7-1z" fill="#ECEFEF"/>
<path transform="translate(503,718)" d="m0 0 8 1 1 4-5 1-2-4z" fill="#0E2624"/>
<path transform="translate(665,439)" d="m0 0 2 2-1 5-5 5-3-1 6-8z" fill="#0F2B22"/>
<path transform="translate(576,770)" d="m0 0h6v5l-4 1-2-3z" fill="#E7EAE9"/>
<path transform="translate(548,348)" d="m0 0h15l-2 2-9 1z" fill="#0C2E25"/>
<path transform="translate(475,291)" d="m0 0 11 2v1l-16 1z" fill="#02595E"/>
<path transform="translate(402,224)" d="m0 0 6 1-2 4-3 1-2-1-1-4z" fill="#D1D9D4"/>
<path transform="translate(563,160)" d="m0 0 5 1 8 5-2 1-9-3z" fill="#ECEFEF"/>
<path transform="translate(470,737)" d="m0 0 3 1-1 4-2 1 3 2h-7v-5l4-1z" fill="#EAEFED"/>
<path transform="translate(765,558)" d="m0 0 4 1 1 1-1 7-2 2-1-8-2-2z" fill="#0A3130"/>
<path transform="translate(452,386)" d="m0 0h3l-2 5-3 5-2-1 2-5 1-1-2-2z" fill="#1D6F67"/>
<path transform="translate(284,295)" d="m0 0h2l-1 11 2 1h-3l-2-4v-5z" fill="#F0F3F3"/>
<path transform="translate(538,723)" d="m0 0h10l-3 5-6-2z" fill="#CDD7CF"/>
<path transform="translate(762,555)" d="m0 0h7v2h2l2 5-3 3-2-6-6-3z" fill="#8FC0A2"/>
<path transform="translate(750,389)" d="m0 0 2 2-1 8h2l1 4h-4l-1-6z" fill="#F0F3F3"/>
<path transform="translate(321,221)" d="m0 0 2 2-4 3-2 4h-2l-1-4 3-1 1-3z" fill="#F0F3F3"/>
<path transform="translate(613,716)" d="m0 0 1 3-1 2h-6l-1 3-1-3 5-4z" fill="#EFF2F2"/>
<path transform="translate(422,646)" d="m0 0 4 1 5 4v7h-1v-5h-2l-3-3v-2h-3z" fill="#E6EBE9"/>
<path transform="translate(373,655)" d="m0 0h4l1 5-5 1-1-4z" fill="#D7DAD7"/>
<path transform="translate(714,467)" d="m0 0m-13 1h13v2l-3 1h-8l-2-1z" fill="#18362C"/>
<path transform="translate(419,769)" d="m0 0v3l-1 3-1 5h-2v-9z" fill="#E3E6E5"/>
<path transform="translate(427,737)" d="m0 0h1v5l-3 2-3 1h-3v-3l2-1h6z" fill="#F0F3F3"/>
<path transform="translate(516,728)" d="m0 0h2l-1 4h-2l-1 4-2 2 1-8z" fill="#C0CEC3"/>
<path transform="translate(395,722)" d="m0 0 6 2-1 4-5-1-1-4z" fill="#BFD2C6"/>
<path transform="translate(681,457)" d="m0 0 4 4-2 2-1 11h-1z" fill="#D7DAD8"/>
<path transform="translate(595,229)" d="m0 0 5 2 8 3-1 2-12-4z" fill="#E9ECEB"/>
</svg>
